<?xml version="1.0" encoding="UTF-8"?>
<!DOCTYPE svg PUBLIC "-//W3C//DTD SVG 1.1//EN" "http://www.w3.org/Graphics/SVG/1.1/DTD/svg11.dtd">
<!-- Creator: CorelDRAW 2021 (64 Bit) -->
<svg xmlns="http://www.w3.org/2000/svg" xml:space="preserve" width="35.9154mm" height="11.0992mm" version="1.1" style="shape-rendering:geometricPrecision; text-rendering:geometricPrecision; image-rendering:optimizeQuality; fill-rule:evenodd; clip-rule:evenodd"
viewBox="0 0 407.07 125.8"
 xmlns:xlink="http://www.w3.org/1999/xlink"
 xmlns:xodm="http://www.corel.com/coreldraw/odm/2003">
 <defs>
  <style type="text/css">
   <![CDATA[
    .fil0 {fill:#5E0000;fill-rule:nonzero}
   ]]>
  </style>
 </defs>
 <g id="Camada_x0020_1">
  <metadata id="CorelCorpID_0Corel-Layer"/>
  <path class="fil0" d="M1.21 26.86c1.24,-3.74 3.63,-7.02 7.12,-9.83 3.49,-2.81 7.47,-5.22 11.9,-7.27 4.43,-2.04 8.9,-3.7 13.4,-4.96 4.5,-1.26 8.43,-2.17 11.81,-2.73 2.62,-0.43 6,-0.89 10.12,-1.32 4.12,-0.43 8.62,-0.68 13.5,-0.74 4.87,-0.06 9.84,0.19 14.9,0.74 5.06,0.56 9.87,1.57 14.43,3.06 4.57,1.49 8.55,3.55 12,6.2 3.44,2.64 5.98,6.01 7.59,10.08 2.13,6.61 2.25,12.83 0.37,18.67 -0.75,2.54 -2.04,5.1 -3.84,7.68 -1.8,2.58 -4.31,5.06 -7.5,7.44 -3.19,2.37 -7.15,4.52 -11.9,6.44 -4.76,1.92 -10.57,3.55 -17.43,4.87 -2.51,0.43 -4.8,0.77 -6.94,0.99 -2.13,0.23 -4.19,0.43 -6.19,0.66 1.5,2.54 3.4,5.29 5.72,8.26 2.32,2.97 4.94,5.95 7.87,8.92 2.93,2.97 6.19,5.78 9.75,8.43 3.56,2.64 7.48,4.85 11.72,6.61 0,0.08 0.07,0.12 0.19,0.12 0.75,0.31 2.6,0.99 5.53,2.02 2.93,1.05 6.4,1.92 10.4,2.64 4.01,0.72 8.18,1.05 12.56,0.99 4.38,-0.06 8.44,-1.07 12.18,-3.06 -0.26,0.56 -0.68,1.38 -1.31,2.48 -0.63,1.09 -1.05,1.92 -1.31,2.48 -2.37,3.86 -5.25,6.77 -8.62,8.76 -3.37,1.98 -7.57,3.3 -12.56,3.96 -3.26,0.43 -6.35,0.5 -9.28,0.17 -2.93,-0.33 -5.69,-0.85 -8.25,-1.57 -2.55,-0.72 -4.9,-1.57 -7.03,-2.56 -2.13,-0.99 -4.01,-1.98 -5.63,-2.97 -0.37,-0.23 -0.75,-0.48 -1.12,-0.74 -0.38,-0.27 -0.75,-0.58 -1.13,-0.91 -4.38,-2.97 -8.27,-6.3 -11.72,-9.98 -3.45,-3.68 -6.49,-7.33 -9.19,-10.97 -2.7,-3.63 -4.99,-7.17 -6.94,-10.57 -1.94,-3.41 -3.47,-6.38 -4.59,-8.92 -0.12,0.23 -0.19,0.5 -0.19,0.83 -0.26,0.99 -0.63,2.56 -1.13,4.71 -0.49,2.15 -0.87,4.52 -1.12,7.11 -0.26,2.58 -0.28,5.22 -0.09,7.93 0.19,2.71 0.84,5.1 1.97,7.19 0.12,0.43 0.44,0.97 0.94,1.61 1.01,1.55 2.06,2.56 3.19,3.06 1.13,0.5 2.13,0.8 3,0.91 1.01,0.1 1.94,-0.06 2.81,-0.5 0.26,0.89 0.16,1.63 -0.28,2.23 -0.44,0.6 -0.96,1.18 -1.59,1.74 -0.63,0.56 -1.43,1.05 -2.44,1.49 -3.37,1.42 -6.49,1.96 -9.37,1.57 -2.88,-0.39 -5.18,-1.01 -6.94,-1.9 -2.37,-0.99 -4.5,-2.85 -6.38,-5.58 -1.87,-2.73 -2.74,-6.96 -2.62,-12.68l0 -1.65c0,-1.55 0.19,-3.24 0.56,-5.12 0.87,-7.5 2.41,-14.77 4.59,-21.81 2.18,-7.04 4.59,-13.61 7.22,-19.66 2.62,-6.05 5.22,-11.48 7.78,-16.27 2.55,-4.79 4.71,-8.74 6.47,-11.81l2.62 -0.5c1.76,-0.23 3.47,-0.43 5.16,-0.66 1.69,-0.23 3.28,-0.39 4.78,-0.5 -1.76,0.1 -3.63,0.25 -5.62,0.41 -1.99,0.17 -4.06,0.41 -6.19,0.74l-2.62 0.5c-7.24,1.32 -13.66,3.39 -19.21,6.2 -5.55,2.81 -10.31,5.76 -14.25,8.84 -3.94,3.08 -7.05,6.05 -9.37,8.92 -2.32,2.87 -3.84,5.02 -4.59,6.44 -2.37,-0.89 -4.24,-2.09 -5.63,-3.64 -1.24,-1.32 -2.23,-3.08 -2.9,-5.29 -0.68,-2.21 -0.4,-5.02 0.84,-8.43zm77.61 -14.42c-2.13,3.2 -5.32,8.41 -9.56,15.61 -4.24,7.21 -8.44,16.38 -12.56,27.51 4.24,0.33 8.88,-0.1 13.87,-1.32 4.99,-1.22 9.72,-3.06 14.15,-5.54 4.43,-2.48 8.23,-5.51 11.34,-9.09 3.12,-3.57 4.87,-7.62 5.25,-12.14 0.12,-1.43 -0.21,-2.97 -1.03,-4.63 -0.82,-1.65 -2.13,-3.2 -3.94,-4.63 -1.8,-1.42 -4.19,-2.66 -7.12,-3.72 -2.93,-1.05 -6.4,-1.74 -10.4,-2.07zm-21 50.72c3.87,0.66 7.57,0.8 11.06,0.41 3.49,-0.39 6.63,-0.97 9.37,-1.74 3.26,-0.89 6.26,-2.04 9,-3.47 -4.01,1.42 -7.76,2.48 -11.25,3.14 -3.49,0.66 -6.63,1.09 -9.37,1.32 -3.26,0.33 -6.19,0.43 -8.81,0.33zm64.3 52.38c-1.5,0.23 -3.26,0.39 -5.25,0.5 -1.76,0.1 -3.77,0.17 -6.09,0.17 -2.32,0 -4.9,-0.23 -7.78,-0.66 1.5,0.56 3.26,0.99 5.25,1.32 1.76,0.23 3.77,0.27 6.09,0.17 2.32,-0.1 4.9,-0.6 7.78,-1.49zm-118.29 -78.81c-0.26,-1.55 -0.26,-3.12 0,-4.71 0.26,-1.59 0.49,-3 0.75,-4.21 0.37,-1.42 0.82,-2.75 1.31,-3.96 -1.5,1.55 -2.44,3.08 -2.81,4.63 -0.38,1.55 -0.49,2.91 -0.38,4.13 0.12,1.42 0.49,2.81 1.13,4.13zm49.86 69.56c-1.12,0.33 -2.37,0.5 -3.75,0.5 -1.24,0 -2.65,-0.23 -4.22,-0.66 -1.57,-0.43 -3.35,-1.32 -5.34,-2.64 0.87,1.32 1.99,2.31 3.37,2.97 1.13,0.66 2.53,1.07 4.22,1.24 1.69,0.16 3.59,-0.31 5.72,-1.41z"/>
  <path class="fil0" d="M192.33 47.36c1.76,0.76 2.46,2.17 2.16,4.21 -0.3,2.04 -1.29,4.32 -2.91,6.86 -0.75,1.22 -2.08,3.37 -4.03,6.44 -1.94,3.08 -4.31,6.18 -7.12,9.25 -2.81,3.08 -6.02,5.72 -9.65,7.93 -3.63,2.21 -7.57,3.04 -11.81,2.48 -1.24,-0.23 -2.51,-0.66 -3.75,-1.32 -1.01,-0.56 -2.04,-1.4 -3.09,-2.56 -1.05,-1.16 -1.85,-2.66 -2.34,-4.54 -1.76,2.54 -4.19,4.71 -7.31,6.53 -3.12,1.82 -7.05,2.56 -11.81,2.23 -3.12,-0.23 -5.69,-0.81 -7.69,-1.74 -1.99,-0.93 -3.58,-2.09 -4.78,-3.47 -1.19,-1.38 -2.04,-2.95 -2.53,-4.71 -0.49,-1.76 -0.82,-3.53 -0.94,-5.29 -0.26,-4.19 0.56,-8.82 2.44,-13.88 1.87,-5.06 4.1,-9.23 6.65,-12.47 2.55,-3.24 5.32,-5.84 8.25,-7.77 2.93,-1.92 5.98,-3.24 9.09,-3.97 3.12,-0.72 6.12,-1.07 9,-1.07 3.26,0 5.72,0.35 7.41,1.07 1.69,0.72 2.98,1.51 3.84,2.4l1.5 -2.97c1.76,-0.56 3.68,-0.93 5.81,-1.16 1.76,-0.23 3.77,-0.19 6.09,0.08 2.32,0.27 4.71,0.91 7.22,1.9 -3.12,6.17 -5.81,11.79 -8.06,16.85 -1.01,2.21 -1.9,4.36 -2.72,6.44 -0.82,2.09 -1.48,3.99 -1.97,5.7 -0.49,1.71 -0.77,3.16 -0.84,4.38 -0.07,1.22 0.16,1.98 0.66,2.31 0.12,0.33 0.45,0.5 0.94,0.5 0.37,0 0.82,-0.1 1.31,-0.33 0.49,-0.23 1.13,-0.72 1.87,-1.49 0.75,-0.77 1.62,-1.82 2.62,-3.14 1.01,-1.32 2.04,-2.75 3.09,-4.3 1.06,-1.55 2.16,-3.08 3.28,-4.63 1.12,-1.55 2.13,-2.91 3,-4.13 0.49,-0.89 1.12,-1.55 1.87,-1.98 0.63,-0.43 1.38,-0.76 2.25,-0.99 0.87,-0.23 1.88,-0.1 3,0.33zm-38.43 4.96c0.38,-0.99 0.68,-2.07 0.94,-3.22 0.26,-1.16 0.4,-2.29 0.47,-3.39 0.07,-1.09 -0.02,-2.04 -0.28,-2.81 -0.26,-0.76 -0.75,-1.32 -1.5,-1.65 -1.38,-0.56 -2.88,-0.56 -4.5,0 -1.62,0.56 -3.3,1.57 -5.06,3.06 -1.76,1.49 -3.47,3.45 -5.16,5.87 -1.69,2.42 -3.16,5.18 -4.41,8.26 -0.87,2.31 -1.43,4.4 -1.69,6.28 -0.26,1.55 -0.16,3.04 0.28,4.46 0.44,1.42 1.52,2.25 3.28,2.48 1.13,0.23 2.34,0.17 3.66,-0.16 1.31,-0.33 2.69,-1.07 4.12,-2.23 1.43,-1.16 2.9,-2.81 4.4,-4.96 1.5,-2.15 2.93,-4.98 4.31,-8.51l0 -0.17c0,-0.23 0.07,-0.39 0.19,-0.5l0.94 -2.81zm-30.74 -0.66c1.5,-2.64 3.12,-4.89 4.87,-6.77 1.76,-1.88 3.47,-3.47 5.15,-4.79 1.69,-1.32 3.12,-2.31 4.31,-2.97 1.19,-0.66 1.97,-1.05 2.34,-1.16 -3.12,0.77 -5.72,2 -7.78,3.72 -2.06,1.71 -3.77,3.45 -5.16,5.2 -1.5,2.09 -2.74,4.36 -3.75,6.77zm-3.19 22.97c0.12,1.22 0.56,2.31 1.31,3.3 0.63,0.89 1.62,1.67 3,2.4 1.38,0.72 3.3,1.18 5.81,1.4 -0.12,0 -0.59,-0.17 -1.41,-0.5 -0.82,-0.33 -1.71,-0.8 -2.72,-1.4 -1.01,-0.6 -2.06,-1.32 -3.19,-2.15 -1.13,-0.83 -2.06,-1.84 -2.81,-3.06zm35.06 2.48c0,1.09 0.3,2.04 0.94,2.81 0.63,0.66 1.52,1.22 2.72,1.65 1.2,0.43 2.91,0.56 5.15,0.33 -1.01,0.1 -2.06,-0.06 -3.19,-0.5 -1.01,-0.23 -1.99,-0.68 -3,-1.4 -1.01,-0.72 -1.87,-1.67 -2.62,-2.89z"/>
  <path class="fil0" d="M189.14 84.54c-2.51,-0.43 -4.57,-1.49 -6.19,-3.14 -1.38,-1.42 -2.44,-3.49 -3.19,-6.2 -0.75,-2.71 -0.45,-6.46 0.94,-11.32 0.38,-2.31 1.13,-5.06 2.25,-8.26 0.87,-2.75 2.13,-6.13 3.75,-10.16 1.62,-4.03 3.75,-8.84 6.37,-14.46 1.87,-0.56 3.86,-0.93 6,-1.16 1.76,-0.23 3.77,-0.19 6.09,0.08 2.32,0.27 4.71,0.91 7.22,1.9 -3.12,6.17 -5.81,11.79 -8.06,16.85 -1.01,2.21 -1.9,4.36 -2.72,6.44 -0.82,2.09 -1.48,3.99 -1.97,5.7 -0.49,1.71 -0.82,3.16 -0.94,4.38 -0.12,1.22 0.07,1.98 0.56,2.31 0.12,0.33 0.45,0.5 0.94,0.5 0.38,0 0.82,-0.1 1.31,-0.33 0.49,-0.23 1.12,-0.72 1.87,-1.49 0.75,-0.77 1.62,-1.82 2.62,-3.14 1.01,-1.32 2.06,-2.75 3.19,-4.3 1.13,-1.55 2.23,-3.08 3.28,-4.63 1.05,-1.55 2.08,-2.91 3.09,-4.13 0.49,-0.89 1.13,-1.55 1.87,-1.98 0.63,-0.43 1.38,-0.76 2.25,-0.99 0.87,-0.23 1.8,-0.1 2.81,0.33 1.87,0.76 2.62,2.17 2.25,4.21 -0.38,2.04 -1.38,4.32 -3,6.86 -0.75,1.22 -2.09,3.37 -4.03,6.44 -1.94,3.08 -4.31,6.18 -7.12,9.25 -2.81,3.08 -6.02,5.72 -9.65,7.93 -3.63,2.21 -7.57,3.04 -11.81,2.48zm14.81 -73.52c1.5,-0.23 3.54,-0.41 6.09,-0.58 2.56,-0.17 5.27,0.19 8.16,1.07 0.49,0.23 0.94,0.5 1.31,0.83 0.75,0.66 0.87,1.59 0.38,2.81l-2.81 5.62c-0.12,0.33 -0.3,0.72 -0.56,1.16 -0.38,0.66 -0.82,1.22 -1.31,1.65 -0.75,0.76 -1.87,1.55 -3.37,2.31 -1.5,0.76 -3.49,0.99 -6,0.66 -2.25,-0.23 -3.94,-0.74 -5.06,-1.57 -1.12,-0.83 -1.87,-1.67 -2.25,-2.56 -0.37,-0.66 -0.45,-1.38 -0.19,-2.15l0.38 -1.32c0.38,-0.99 0.77,-1.98 1.22,-2.97 0.45,-0.99 0.96,-2.09 1.59,-3.3 0.12,-0.23 0.3,-0.43 0.56,-0.66 0.63,-0.56 1.24,-0.89 1.87,-0.99zm-12.37 29.74c0.26,-0.43 0.66,-1.07 1.22,-1.9 0.56,-0.83 1.29,-1.71 2.16,-2.64 0.87,-0.93 1.87,-1.76 3,-2.48 1.13,-0.72 2.32,-1.18 3.56,-1.4 -0.87,0.1 -1.69,0.17 -2.44,0.17 -0.63,0.1 -1.29,0.17 -1.97,0.17 -0.68,0 -1.15,0.06 -1.41,0.17l-4.13 7.93zm8.62 -20.82c0,-0.1 0.28,-0.5 0.84,-1.16 0.56,-0.66 1.24,-1.43 2.06,-2.31 0.82,-0.89 1.8,-1.71 3,-2.48 1.2,-0.76 2.46,-1.32 3.84,-1.65 -0.63,0.1 -1.2,0.17 -1.69,0.17 -0.49,0.1 -1.03,0.17 -1.59,0.17 -0.56,0 -1.1,0.06 -1.59,0.17 -0.75,0.23 -1.24,0.5 -1.5,0.83 -0.26,0.23 -0.38,0.39 -0.38,0.5l-3 5.78zm-14.81 57.17c0,1.09 0.3,2.04 0.94,2.81 0.63,0.66 1.5,1.22 2.62,1.65 1.12,0.43 2.88,0.56 5.25,0.33 -1.01,0.1 -2.06,-0.06 -3.19,-0.5 -1.01,-0.23 -1.99,-0.68 -3,-1.4 -1.01,-0.72 -1.87,-1.67 -2.62,-2.89z"/>
  <path class="fil0" d="M288.49 47.36c1.76,0.76 2.46,2.17 2.16,4.21 -0.3,2.04 -1.29,4.32 -2.91,6.86 -0.75,1.22 -2.08,3.37 -4.03,6.44 -1.94,3.08 -4.31,6.18 -7.12,9.25 -2.81,3.08 -6.02,5.72 -9.65,7.93 -3.63,2.21 -7.57,3.04 -11.81,2.48 -1.24,-0.23 -2.51,-0.66 -3.75,-1.32 -1.01,-0.56 -2.04,-1.4 -3.09,-2.56 -1.06,-1.16 -1.85,-2.66 -2.34,-4.54 -1.76,2.54 -4.19,4.71 -7.31,6.53 -3.12,1.82 -7.05,2.56 -11.81,2.23 -3.12,-0.23 -5.69,-0.81 -7.69,-1.74 -1.99,-0.93 -3.58,-2.09 -4.78,-3.47 -1.19,-1.38 -2.04,-2.95 -2.53,-4.71 -0.49,-1.76 -0.82,-3.53 -0.94,-5.29 -0.26,-4.19 0.56,-8.82 2.44,-13.88 1.87,-5.06 4.1,-9.23 6.65,-12.47 2.55,-3.24 5.32,-5.84 8.25,-7.77 2.93,-1.92 5.98,-3.24 9.09,-3.97 3.12,-0.72 6.12,-1.07 9,-1.07 3.26,0 5.72,0.35 7.41,1.07 1.69,0.72 2.98,1.51 3.84,2.4l1.5 -2.97c1.76,-0.56 3.68,-0.93 5.81,-1.16 1.76,-0.23 3.77,-0.19 6.09,0.08 2.32,0.27 4.71,0.91 7.22,1.9 -3.12,6.17 -5.81,11.79 -8.06,16.85 -1.01,2.21 -1.9,4.36 -2.72,6.44 -0.82,2.09 -1.48,3.99 -1.97,5.7 -0.49,1.71 -0.77,3.16 -0.84,4.38 -0.07,1.22 0.16,1.98 0.66,2.31 0.12,0.33 0.45,0.5 0.94,0.5 0.38,0 0.82,-0.1 1.31,-0.33 0.49,-0.23 1.12,-0.72 1.87,-1.49 0.75,-0.77 1.62,-1.82 2.62,-3.14 1.01,-1.32 2.04,-2.75 3.09,-4.3 1.06,-1.55 2.16,-3.08 3.28,-4.63 1.12,-1.55 2.13,-2.91 3,-4.13 0.49,-0.89 1.13,-1.55 1.88,-1.98 0.63,-0.43 1.38,-0.76 2.25,-0.99 0.87,-0.23 1.87,-0.1 3,0.33zm-38.43 4.96c0.38,-0.99 0.68,-2.07 0.94,-3.22 0.26,-1.16 0.4,-2.29 0.47,-3.39 0.07,-1.09 -0.02,-2.04 -0.28,-2.81 -0.26,-0.76 -0.75,-1.32 -1.5,-1.65 -1.38,-0.56 -2.88,-0.56 -4.5,0 -1.62,0.56 -3.3,1.57 -5.06,3.06 -1.76,1.49 -3.47,3.45 -5.15,5.87 -1.69,2.42 -3.16,5.18 -4.41,8.26 -0.87,2.31 -1.43,4.4 -1.69,6.28 -0.26,1.55 -0.16,3.04 0.28,4.46 0.44,1.42 1.52,2.25 3.28,2.48 1.13,0.23 2.34,0.17 3.66,-0.16 1.31,-0.33 2.69,-1.07 4.12,-2.23 1.43,-1.16 2.9,-2.81 4.4,-4.96 1.5,-2.15 2.93,-4.98 4.31,-8.51l0 -0.17c0,-0.23 0.07,-0.39 0.19,-0.5l0.94 -2.81zm-30.74 -0.66c1.5,-2.64 3.12,-4.89 4.87,-6.77 1.76,-1.88 3.47,-3.47 5.15,-4.79 1.69,-1.32 3.12,-2.31 4.31,-2.97 1.19,-0.66 1.97,-1.05 2.34,-1.16 -3.12,0.77 -5.72,2 -7.78,3.72 -2.06,1.71 -3.77,3.45 -5.15,5.2 -1.5,2.09 -2.74,4.36 -3.75,6.77zm-3.19 22.97c0.12,1.22 0.56,2.31 1.31,3.3 0.63,0.89 1.62,1.67 3,2.4 1.38,0.72 3.3,1.18 5.81,1.4 -0.12,0 -0.58,-0.17 -1.41,-0.5 -0.82,-0.33 -1.71,-0.8 -2.72,-1.4 -1.01,-0.6 -2.06,-1.32 -3.19,-2.15 -1.12,-0.83 -2.06,-1.84 -2.81,-3.06zm35.06 2.48c0,1.09 0.3,2.04 0.94,2.81 0.63,0.66 1.52,1.22 2.72,1.65 1.2,0.43 2.91,0.56 5.16,0.33 -1.01,0.1 -2.06,-0.06 -3.19,-0.5 -1.01,-0.23 -1.99,-0.68 -3,-1.4 -1.01,-0.72 -1.88,-1.67 -2.62,-2.89z"/>
  <path class="fil0" d="M318.3 84.54c-2.62,-0.43 -4.69,-1.49 -6.19,-3.14 -1.38,-1.42 -2.41,-3.49 -3.09,-6.2 -0.68,-2.71 -0.35,-6.46 1.03,-11.32 0.12,-0.89 0.37,-1.92 0.75,-3.14 0.26,-1.09 0.63,-2.42 1.12,-3.97 0.49,-1.55 1.12,-3.41 1.87,-5.62 0,-0.23 0.19,-0.66 0.56,-1.32 0.26,-0.66 0.54,-1.51 0.84,-2.56 0.3,-1.05 0.49,-2.09 0.56,-3.14 0.07,-1.05 0,-1.98 -0.19,-2.81 -0.19,-0.83 -0.66,-1.3 -1.41,-1.4 -0.87,-0.23 -2.18,0.41 -3.94,1.9 -1.76,1.49 -3.63,3.49 -5.63,6.03 -1.99,2.54 -3.96,5.52 -5.91,8.92 -1.94,3.41 -3.54,6.94 -4.78,10.57 -0.49,1.22 -0.91,2.48 -1.22,3.8 -0.3,1.32 -0.66,2.64 -1.03,3.97 -0.49,1.65 -0.63,3.04 -0.38,4.13 0.26,1.09 0.59,1.98 1.03,2.64 0.45,0.66 0.94,1.16 1.5,1.49 0.56,0.33 0.91,0.5 1.03,0.5 -1.01,0.56 -2.13,0.97 -3.37,1.24 -1.24,0.27 -2.44,0.52 -3.56,0.74 -0.49,0.1 -1.05,0.17 -1.69,0.17 -2.88,0.23 -5.06,-0.1 -6.56,-0.99 -1.5,-0.89 -2.55,-2 -3.19,-3.39 -0.63,-1.38 -0.96,-2.79 -1.03,-4.21 -0.07,-1.43 -0.02,-2.58 0.09,-3.47 1.01,-6.17 2.37,-12.23 4.12,-18.17 1.76,-5.95 3.68,-11.67 5.81,-17.18l3 -7.6c0,0 0.07,-0.06 0.19,-0.17 0.38,-0.1 1.12,-0.31 2.25,-0.58 1.12,-0.27 2.53,-0.43 4.22,-0.5 1.69,-0.06 3.56,0.02 5.62,0.25 2.06,0.23 4.22,0.83 6.47,1.82 -0.12,0.56 -0.3,1.09 -0.56,1.65 -0.38,0.99 -0.94,2.31 -1.69,3.96 2.13,-1.88 4.43,-3.47 6.94,-4.79 2.51,-1.32 5.06,-2.04 7.69,-2.15 0.87,0 1.94,0.1 3.19,0.33 5.13,0.66 8.51,2.91 10.12,6.77 1.62,3.86 1.24,8.92 -1.13,15.2 -1.5,3.53 -2.65,6.71 -3.47,9.58 -0.82,2.87 -0.73,4.56 0.28,5.12 0.12,0.33 0.44,0.5 0.94,0.5 0.37,0 0.82,-0.1 1.31,-0.33 0.49,-0.23 1.13,-0.72 1.87,-1.49 0.75,-0.77 1.62,-1.82 2.62,-3.14 1.01,-1.32 2.04,-2.75 3.09,-4.3 1.05,-1.55 2.16,-3.08 3.28,-4.63 1.13,-1.55 2.13,-2.91 3,-4.13 0.49,-0.89 1.12,-1.55 1.87,-1.98 0.63,-0.43 1.38,-0.76 2.25,-0.99 0.87,-0.23 1.8,-0.1 2.81,0.33 1.87,0.76 2.65,2.17 2.34,4.21 -0.3,2.04 -1.29,4.32 -2.91,6.86 -0.75,1.22 -2.09,3.37 -4.03,6.44 -1.94,3.08 -4.31,6.18 -7.12,9.25 -2.81,3.08 -6.07,5.72 -9.75,7.93 -3.68,2.21 -7.66,3.04 -11.9,2.48zm-30.74 -43.78c0.26,-0.43 0.66,-1.07 1.22,-1.9 0.56,-0.83 1.29,-1.71 2.16,-2.64 0.87,-0.93 1.87,-1.76 3,-2.48 1.13,-0.72 2.32,-1.18 3.56,-1.4 -1.01,0.1 -1.87,0.17 -2.62,0.17 -0.63,0.1 -1.24,0.17 -1.87,0.17 -0.63,0 -1.05,0.06 -1.31,0.17l-4.12 7.93zm26.99 36.35c0,1.09 0.3,2.04 0.94,2.81 0.63,0.66 1.5,1.22 2.62,1.65 1.13,0.43 2.88,0.56 5.25,0.33 -1.01,0.1 -2.06,-0.06 -3.19,-0.5 -1.01,-0.23 -1.99,-0.68 -3,-1.4 -1.01,-0.72 -1.87,-1.67 -2.62,-2.89zm-35.62 2.97c0.26,0.89 0.63,1.65 1.13,2.31 0.49,0.56 1.22,1.05 2.16,1.49 0.94,0.43 2.27,0.6 4.03,0.5 -0.26,0 -1.22,-0.31 -2.9,-0.91 -1.69,-0.6 -3.16,-1.73 -4.41,-3.39z"/>
  <path class="fil0" d="M404.72 47.36c1.87,0.76 2.62,2.17 2.25,4.21 -0.37,2.04 -1.38,4.32 -3,6.86 -0.49,0.76 -1.24,1.96 -2.25,3.55 -1.01,1.59 -2.18,3.45 -3.56,5.54 -1.01,1.22 -2.27,2.73 -3.84,4.54 -1.57,1.82 -3.47,3.61 -5.72,5.37 -2.25,1.75 -4.8,3.41 -7.69,4.96 -2.88,1.55 -6.07,2.64 -9.56,3.3l-4.12 0.5c-1.76,0.23 -3.56,0.23 -5.44,0 -2.25,-0.1 -4.43,-0.39 -6.56,-0.83 -1.88,-0.43 -3.82,-1.05 -5.81,-1.82 -1.99,-0.76 -3.75,-1.92 -5.25,-3.47l-0.19 -0.17c-1.99,-2.09 -3.16,-4.52 -3.47,-7.27 -0.3,-2.75 -0.35,-5.39 -0.09,-7.93 0.38,-2.87 1.12,-5.84 2.25,-8.92 1.87,-5.06 4.1,-9.23 6.66,-12.47 2.55,-3.24 5.32,-5.84 8.25,-7.77 2.93,-1.92 5.97,-3.24 9.09,-3.97 3.12,-0.72 6.12,-1.07 9,-1.07 1.87,0 3.49,0.17 4.87,0.5 1.24,0.23 2.79,0.89 4.59,1.98 1.8,1.09 3.21,2.91 4.22,5.45 0,0 0.07,0.06 0.19,0.17 0,0.23 0.09,0.64 0.28,1.24 0.19,0.6 0.35,1.47 0.47,2.56 0.12,0.56 0.19,1.42 0.19,2.64 0,1.43 -0.3,3.08 -0.94,4.96 0,0 -0.07,0.1 -0.19,0.33l0 0.33c-0.26,0.66 -0.49,1.16 -0.75,1.49l0 0.16c-0.49,0.99 -1.22,2.17 -2.16,3.55 -0.94,1.38 -2.16,2.71 -3.66,3.96 -1.5,1.26 -3.3,2.33 -5.44,3.22 -2.13,0.89 -4.62,1.38 -7.5,1.49 -1.76,0.1 -3.16,0.02 -4.22,-0.25 -1.05,-0.27 -1.71,-0.41 -1.97,-0.41 -1.76,-0.56 -3.37,-1.32 -4.87,-2.31 -0.26,0.89 -0.47,1.88 -0.66,2.97 -0.19,1.09 -0.16,2.15 0.09,3.14 0,0.23 0.07,0.58 0.19,1.07 0.12,0.5 0.37,1.07 0.75,1.74 0.26,0.33 0.56,0.68 0.94,1.07 0.37,0.39 0.82,0.68 1.31,0.91 0.38,0.43 0.87,0.72 1.5,0.83l0.75 0.33c1.99,0.56 3.96,0.72 5.9,0.5 1.95,-0.23 3.77,-0.66 5.53,-1.32l3.56 -1.49c1.76,-0.99 3.37,-2.21 4.87,-3.63 1.5,-1.43 2.81,-2.75 3.94,-3.97l2.06 -2.48c1.38,-1.88 2.79,-3.82 4.22,-5.87 1.43,-2.04 2.79,-3.82 4.03,-5.37 0.63,-0.89 1.24,-1.55 1.87,-1.98 0.63,-0.43 1.34,-0.76 2.16,-0.99 0.82,-0.23 1.78,-0.1 2.91,0.33zm-25.68 -6.11c-2.51,-1.09 -5.51,-0.31 -9,2.4 -3.49,2.71 -6.49,6.79 -9,12.31 0.63,0.43 1.87,0.91 3.75,1.4 1.87,0.5 4.38,0.31 7.5,-0.58 1.87,-0.66 3.37,-1.51 4.5,-2.56 1.12,-1.05 1.97,-2.17 2.53,-3.39 0.56,-1.22 0.94,-2.39 1.12,-3.55 0.19,-1.16 0.28,-2.07 0.28,-2.73 -0.26,-1.76 -0.82,-2.87 -1.69,-3.3zm-26.99 38.66c1.62,1.22 3.56,2.15 5.81,2.81 1.87,0.56 4.19,0.89 6.94,0.99 2.74,0.1 5.93,-0.43 9.56,-1.65 -2.51,0.43 -4.99,0.66 -7.5,0.66 -2.13,0 -4.52,-0.16 -7.22,-0.5 -2.69,-0.33 -5.22,-1.09 -7.59,-2.31zm13.68 -44.77c-2.51,0.56 -4.59,1.4 -6.28,2.56 -1.69,1.16 -3.02,2.33 -4.03,3.55 -1.24,1.32 -2.25,2.81 -3,4.46 1.01,-1.22 2.25,-2.46 3.75,-3.72 1.5,-1.26 2.93,-2.39 4.31,-3.39 1.62,-1.22 3.37,-2.38 5.25,-3.47zm2.06 23.96c1.12,0.23 2.25,0.27 3.37,0.17 1.01,-0.1 1.99,-0.35 3,-0.74 1.01,-0.39 1.94,-1.07 2.81,-2.07 -0.75,0.56 -1.62,1.05 -2.62,1.49 -0.87,0.33 -1.88,0.64 -3,0.91 -1.12,0.27 -2.32,0.35 -3.56,0.25z"/>
  <g id="_1812073939712">
   <path class="fil0" d="M174.65 107.48c0,1.87 -0.28,3.65 -0.84,5.35 -0.56,1.69 -1.44,3.2 -2.64,4.52 -1.2,1.32 -2.77,2.39 -4.68,3.19 -1.92,0.8 -4.24,1.24 -6.96,1.31 -1.29,0.03 -2.46,-0.1 -3.53,-0.41 -1.07,-0.31 -1.99,-0.7 -2.77,-1.16 -0.78,-0.47 -1.41,-0.97 -1.86,-1.5 -0.45,-0.53 -0.71,-0.99 -0.78,-1.38 -0.1,-0.48 -0.06,-0.94 0.13,-1.35 0.19,-0.42 0.42,-0.74 0.68,-0.97 0.26,-0.22 0.54,-0.33 0.84,-0.31 0.29,0.02 0.5,0.19 0.6,0.51 0.28,0.8 0.91,1.55 1.88,2.22 0.97,0.68 2.48,1.02 4.5,1.02 1.46,0 2.8,-0.31 4,-0.92 1.2,-0.61 2.2,-1.44 3.01,-2.49 0.8,-1.04 1.39,-2.24 1.75,-3.6 0.37,-1.35 0.48,-2.76 0.34,-4.21 -0.21,-2.03 -0.86,-3.67 -1.96,-4.93 -1.1,-1.26 -2.61,-1.89 -4.52,-1.89 -0.03,0.07 -0.05,0.12 -0.03,0.17 0.02,0.05 0.03,0.1 0.03,0.17 -0.21,2.06 -0.39,3.97 -0.52,5.71 -0.14,1.74 -0.21,3.26 -0.21,4.55 0,1.61 0.14,2.9 0.42,3.87l0.16 0.39 0 0.1c0,0.03 0.02,0.05 0.05,0.05 0,0.07 0.03,0.15 0.11,0.27 0.07,0.11 0.12,0.2 0.16,0.27 -0.03,0.29 -0.31,0.5 -0.84,0.63 -0.52,0.13 -1.08,0.19 -1.67,0.19 -0.87,0 -1.73,-0.21 -2.56,-0.63 -0.84,-0.42 -1.44,-1.23 -1.83,-2.42 -0.18,-0.65 -0.27,-1.28 -0.29,-1.91 -0.02,-0.63 -0.01,-1.26 0.03,-1.91 0,-0.07 0.01,-0.17 0.03,-0.34 0.02,-0.16 0.05,-0.55 0.1,-1.16 0.05,-0.61 0.13,-1.55 0.23,-2.83 0.11,-1.28 0.24,-3.05 0.42,-5.34l-0.68 0.29c-0.28,0.19 -0.54,0.49 -0.78,0.89 -0.24,0.41 -0.45,0.82 -0.63,1.23 -0.18,0.42 -0.31,0.82 -0.42,1.19 -0.1,0.37 -0.16,0.65 -0.16,0.85 0,0.03 -0.03,0.05 -0.1,0.05 -0.07,0 -0.14,0 -0.21,0 -0.7,0.03 -1.34,-0.2 -1.93,-0.7 -0.59,-0.5 -0.84,-1.17 -0.73,-2.01 0.1,-1 0.49,-1.9 1.15,-2.69 0.66,-0.79 1.49,-1.45 2.48,-1.98 0.99,-0.54 2.1,-0.95 3.32,-1.24 1.22,-0.29 2.46,-0.44 3.71,-0.44 1.99,0 3.84,0.27 5.54,0.82 1.71,0.55 3.19,1.34 4.44,2.37 1.26,1.03 2.24,2.27 2.95,3.72 0.71,1.45 1.07,3.07 1.07,4.84zm10.36 -3.77c1.26,0.07 2.32,0.32 3.19,0.77 0.87,0.45 1.58,1.02 2.12,1.69 0.54,0.68 0.94,1.43 1.18,2.26 0.24,0.82 0.4,1.63 0.47,2.44 0.07,1.13 -0.06,2.2 -0.39,3.22 -0.33,1.02 -0.84,1.92 -1.52,2.69 -0.68,0.77 -1.51,1.39 -2.48,1.84 -0.97,0.45 -2.06,0.65 -3.24,0.58 -1.85,-0.1 -3.31,-0.57 -4.39,-1.43 -1.08,-0.86 -1.85,-2.01 -2.3,-3.46 -0.38,-1.26 -0.45,-2.52 -0.21,-3.8 0.24,-1.28 0.71,-2.42 1.41,-3.44 0.7,-1.02 1.58,-1.84 2.64,-2.47 1.07,-0.63 2.24,-0.92 3.53,-0.89zm-0.36 3.81c-0.24,0 -0.45,0.2 -0.63,0.61 -0.18,0.4 -0.31,0.91 -0.39,1.52 -0.09,0.62 -0.14,1.26 -0.16,1.96 -0.02,0.69 0.01,1.34 0.08,1.96 0.07,0.61 0.18,1.12 0.34,1.52 0.16,0.41 0.34,0.61 0.55,0.61 0.35,0 0.66,-0.42 0.94,-1.26 0.28,-0.83 0.44,-1.77 0.5,-2.8 0.05,-1.03 -0.01,-1.97 -0.18,-2.82 -0.18,-0.85 -0.52,-1.28 -1.04,-1.28zm18.46 2.78c0.49,-0.45 0.78,-0.91 0.89,-1.38 0.1,-0.47 -0.03,-0.78 -0.42,-0.94 -0.91,-0.32 -1.75,-0.12 -2.51,0.63 -0.77,0.74 -1.18,1.64 -1.23,2.71 -0.05,1.06 0.23,1.88 0.84,2.44 0.61,0.56 1.47,0.83 2.59,0.8 1.01,-0.07 1.78,-0.27 2.3,-0.6 0.52,-0.34 1.07,-0.72 1.62,-1.14 0.1,-0.1 0.19,-0.15 0.26,-0.15 0.28,0 0.55,0.2 0.81,0.61 0.26,0.4 0.39,0.89 0.39,1.47 0,0.71 -0.21,1.31 -0.63,1.81 -0.42,0.5 -0.94,0.92 -1.57,1.25 -0.63,0.34 -1.33,0.59 -2.09,0.75 -0.77,0.16 -1.5,0.24 -2.2,0.24 -2.51,0 -4.49,-0.61 -5.93,-1.83 -1.45,-1.22 -2.17,-2.94 -2.17,-5.17 0,-1.19 0.22,-2.3 0.65,-3.31 0.44,-1.02 1.05,-1.88 1.83,-2.59 0.78,-0.71 1.73,-1.24 2.85,-1.6 1.12,-0.36 2.35,-0.48 3.71,-0.39 0.97,0.07 1.85,0.28 2.61,0.65 0.77,0.37 1.38,0.84 1.83,1.4 0.45,0.56 0.76,1.18 0.91,1.84 0.16,0.66 0.13,1.31 -0.08,1.96 -0.14,0.39 -0.37,0.75 -0.71,1.09 -0.33,0.34 -0.71,0.61 -1.15,0.82 -0.44,0.21 -0.92,0.34 -1.46,0.39 -0.54,0.05 -1.07,-0.04 -1.6,-0.27 -0.56,-0.22 -0.84,-0.47 -0.84,-0.73 0,-0.26 0.16,-0.51 0.47,-0.77zm15.63 2.26c-0.38,0 -0.71,-0.02 -0.97,-0.07 -0.26,-0.05 -0.63,-0.15 -1.12,-0.31l0 0.19c-0.07,0.61 0.2,1.09 0.81,1.45 0.61,0.35 1.28,0.53 2.01,0.53 1.04,0 1.86,-0.15 2.43,-0.45 0.58,-0.3 1.14,-0.66 1.7,-1.07 0.1,-0.1 0.19,-0.15 0.26,-0.15 0.28,0 0.55,0.2 0.81,0.61 0.26,0.4 0.39,0.89 0.39,1.47 0,0.71 -0.21,1.31 -0.63,1.81 -0.42,0.5 -0.94,0.91 -1.57,1.25 -0.63,0.34 -1.33,0.59 -2.09,0.75 -0.77,0.16 -1.5,0.24 -2.2,0.24 -2.51,0 -4.49,-0.61 -5.94,-1.84 -1.45,-1.23 -2.17,-2.95 -2.17,-5.18 0,-1.19 0.24,-2.3 0.73,-3.31 0.49,-1.02 1.13,-1.88 1.93,-2.59 0.81,-0.71 1.75,-1.25 2.82,-1.62 1.08,-0.37 2.23,-0.51 3.45,-0.41 1.26,0.1 2.27,0.38 3.06,0.85 0.78,0.46 1.35,1.02 1.7,1.67 0.35,0.65 0.48,1.33 0.39,2.06 -0.09,0.73 -0.36,1.4 -0.81,2.01 -0.45,0.61 -1.1,1.12 -1.96,1.52 -0.86,0.4 -1.88,0.6 -3.06,0.6zm-1.73 -2.56c0.21,0 0.46,-0.02 0.76,-0.07 0.29,-0.05 0.57,-0.14 0.84,-0.27 0.26,-0.13 0.49,-0.28 0.68,-0.46 0.19,-0.17 0.29,-0.39 0.29,-0.65 0,-0.26 -0.09,-0.44 -0.26,-0.56 -0.18,-0.12 -0.35,-0.17 -0.52,-0.17 -0.28,0 -0.58,0.12 -0.92,0.36 -0.33,0.24 -0.62,0.85 -0.86,1.81zm23.68 4.49c-0.03,1.17 -0.37,2.07 -0.99,2.71 -0.63,0.64 -1.33,1.12 -2.12,1.43 -0.78,0.31 -1.54,0.48 -2.25,0.53 -0.71,0.05 -1.18,0.07 -1.39,0.07 -1.47,0 -2.64,-0.16 -3.51,-0.48 -0.87,-0.32 -1.55,-0.68 -2.02,-1.08 -0.47,-0.4 -0.78,-0.8 -0.91,-1.2 -0.14,-0.4 -0.23,-0.68 -0.26,-0.85 -0.14,-0.65 0.07,-1.16 0.63,-1.55 0.56,-0.39 1.2,-0.65 1.91,-0.8 0.72,-0.15 1.37,-0.17 1.94,-0.07 0.57,0.1 0.81,0.31 0.71,0.63 -0.06,0.22 -0.09,0.48 -0.05,0.77 0.04,0.29 0.11,0.56 0.21,0.8 0.1,0.24 0.26,0.45 0.47,0.63 0.21,0.18 0.48,0.27 0.79,0.27 0.06,0 0.24,-0.08 0.5,-0.24 0.26,-0.16 0.32,-0.58 0.18,-1.26 -0.1,-0.45 -0.48,-0.92 -1.12,-1.41 -0.65,-0.48 -1.35,-1 -2.1,-1.55 -0.75,-0.55 -1.43,-1.15 -2.05,-1.8 -0.61,-0.65 -0.92,-1.37 -0.92,-2.18 0,-0.54 0.12,-1.09 0.37,-1.64 0.25,-0.55 0.63,-1.04 1.15,-1.48 0.53,-0.44 1.22,-0.78 2.07,-1.04 0.86,-0.26 1.9,-0.39 3.12,-0.39 0.56,0 1.11,0.07 1.65,0.22 0.54,0.15 1.03,0.34 1.46,0.6 0.44,0.26 0.8,0.57 1.1,0.94 0.29,0.38 0.48,0.79 0.55,1.23 0.11,0.62 0,1.06 -0.31,1.36 -0.31,0.29 -0.66,0.45 -1.04,0.48 -0.39,0.03 -0.73,-0.02 -1.05,-0.17 -0.31,-0.15 -0.44,-0.35 -0.36,-0.61 0.1,-0.35 0.05,-0.61 -0.16,-0.77 -0.21,-0.16 -0.46,-0.25 -0.76,-0.27 -0.29,-0.01 -0.58,0.04 -0.84,0.17 -0.26,0.13 -0.39,0.31 -0.39,0.53 0,0.23 0.05,0.39 0.16,0.49 0.1,0.1 0.4,0.27 0.89,0.53 0.31,0.22 0.74,0.54 1.28,0.97 0.54,0.42 1.07,0.91 1.59,1.47 0.52,0.56 0.97,1.19 1.33,1.86 0.36,0.68 0.55,1.39 0.55,2.13zm17.93 -1.93c-0.38,0 -0.71,-0.02 -0.97,-0.07 -0.26,-0.05 -0.63,-0.15 -1.12,-0.31l0 0.19c-0.07,0.61 0.2,1.09 0.81,1.45 0.61,0.35 1.28,0.53 2.01,0.53 1.04,0 1.86,-0.15 2.43,-0.45 0.58,-0.3 1.14,-0.66 1.7,-1.07 0.1,-0.1 0.19,-0.15 0.26,-0.15 0.28,0 0.55,0.2 0.81,0.61 0.26,0.4 0.39,0.89 0.39,1.47 0,0.71 -0.21,1.31 -0.63,1.81 -0.42,0.5 -0.94,0.91 -1.57,1.25 -0.63,0.34 -1.33,0.59 -2.09,0.75 -0.77,0.16 -1.5,0.24 -2.2,0.24 -2.51,0 -4.49,-0.61 -5.94,-1.84 -1.44,-1.23 -2.17,-2.95 -2.17,-5.18 0,-1.19 0.24,-2.3 0.73,-3.31 0.49,-1.02 1.13,-1.88 1.93,-2.59 0.81,-0.71 1.75,-1.25 2.83,-1.62 1.08,-0.37 2.23,-0.51 3.45,-0.41 1.26,0.1 2.27,0.38 3.06,0.85 0.78,0.46 1.35,1.02 1.7,1.67 0.35,0.65 0.48,1.33 0.39,2.06 -0.09,0.73 -0.36,1.4 -0.81,2.01 -0.45,0.61 -1.1,1.12 -1.96,1.52 -0.86,0.4 -1.88,0.6 -3.06,0.6zm-1.73 -2.56c0.21,0 0.46,-0.02 0.76,-0.07 0.29,-0.05 0.57,-0.14 0.84,-0.27 0.26,-0.13 0.49,-0.28 0.68,-0.46 0.19,-0.17 0.29,-0.39 0.29,-0.65 0,-0.26 -0.09,-0.44 -0.26,-0.56 -0.18,-0.12 -0.35,-0.17 -0.52,-0.17 -0.28,0 -0.58,0.12 -0.92,0.36 -0.33,0.24 -0.62,0.85 -0.86,1.81zm25.99 11.66c-1.95,-0.1 -3.68,-0.56 -5.18,-1.4 -1.5,-0.84 -2.54,-1.9 -3.14,-3.19 -0.49,-1.13 -0.65,-2.22 -0.47,-3.29 0.18,-1.06 0.6,-1.97 1.28,-2.71 0.68,-0.74 1.58,-1.28 2.69,-1.6 1.12,-0.32 2.37,-0.31 3.77,0.05 0.55,0.16 1.02,0.46 1.39,0.89 0.37,0.44 0.6,0.86 0.68,1.28 0.08,0.42 0.01,0.75 -0.24,0.99 -0.24,0.24 -0.7,0.22 -1.36,-0.07 -0.6,-0.26 -1.12,-0.34 -1.57,-0.24 -0.45,0.1 -0.83,0.3 -1.13,0.61 -0.29,0.31 -0.5,0.69 -0.6,1.16 -0.11,0.47 -0.11,0.94 0,1.43 0.14,0.77 0.5,1.35 1.07,1.72 0.58,0.37 1.22,0.58 1.94,0.63 0.71,0.05 1.44,-0.07 2.2,-0.34 0.75,-0.27 1.38,-0.68 1.88,-1.21 0.5,-0.53 0.84,-1.19 0.99,-1.96 0.16,-0.77 0.01,-1.64 -0.44,-2.61 -0.49,-1.06 -1.3,-2.08 -2.43,-3.05 -1.13,-0.97 -2.48,-2.11 -4.05,-3.43 -1.12,-1.09 -1.82,-2.22 -2.12,-3.36 -0.29,-1.14 -0.22,-2.2 0.24,-3.17 0.45,-0.97 1.25,-1.76 2.41,-2.39 1.15,-0.63 2.6,-0.97 4.34,-1.04 0.84,-0.03 1.71,0.02 2.61,0.17 0.91,0.15 1.75,0.39 2.54,0.73 0.78,0.34 1.43,0.78 1.93,1.33 0.5,0.55 0.79,1.21 0.86,1.98 0.03,0.71 -0.24,1.31 -0.81,1.81 -0.57,0.5 -1.2,0.86 -1.88,1.09 -0.68,0.22 -1.3,0.29 -1.86,0.19 -0.56,-0.1 -0.8,-0.39 -0.73,-0.87 0.11,-0.77 0,-1.31 -0.31,-1.6 -0.31,-0.29 -0.69,-0.41 -1.12,-0.36 -0.44,0.05 -0.84,0.22 -1.2,0.51 -0.36,0.29 -0.53,0.6 -0.5,0.92 0.03,0.26 0.14,0.51 0.31,0.77 0.18,0.26 0.5,0.51 0.99,0.77 1.33,0.8 2.48,1.57 3.45,2.3 0.97,0.73 1.8,1.48 2.46,2.25 0.7,0.87 1.22,1.83 1.57,2.88 0.35,1.05 0.52,2.1 0.5,3.17 -0.02,1.06 -0.24,2.09 -0.65,3.07 -0.42,0.99 -1.04,1.86 -1.88,2.64 -1.05,0.94 -2.32,1.62 -3.82,2.06 -1.5,0.44 -3.03,0.6 -4.6,0.51zm22.12 -5.71c-0.49,0.94 -1.07,1.69 -1.73,2.25 -0.66,0.56 -1.6,0.77 -2.82,0.6 -1.18,-0.16 -2.13,-0.73 -2.82,-1.69 -0.7,-0.97 -1.08,-2.16 -1.15,-3.58 -0.11,-1.91 0.1,-3.51 0.6,-4.84 0.5,-1.32 1.2,-2.4 2.07,-3.24 0.6,-0.58 1.24,-1 1.93,-1.26 0.7,-0.26 1.38,-0.38 2.04,-0.36 0.66,0.02 1.25,0.14 1.75,0.36 0.5,0.22 0.86,0.51 1.07,0.87 0.07,0.1 0.08,0.17 0.05,0.22 -0.03,0.05 -0.02,0.02 0.05,-0.07 0.31,-0.65 0.73,-1.05 1.25,-1.21 0.52,-0.16 1.05,-0.19 1.57,-0.1 0.52,0.1 1.01,0.27 1.46,0.53 0.45,0.26 0.78,0.5 0.99,0.73 0.24,0.26 0.39,0.51 0.44,0.77 0.05,0.26 0.06,0.53 0.03,0.82 -0.07,0.74 -0.14,1.74 -0.21,2.98 -0.07,1.24 -0.1,2.42 -0.1,3.55 0,0.94 0.06,1.82 0.18,2.66 0.13,0.84 0.32,1.53 0.6,2.08 0.18,0.36 -0.01,0.59 -0.55,0.7 -0.54,0.11 -1.21,0.17 -2.01,0.17 -1.12,0 -2.11,-0.26 -2.98,-0.77 -0.87,-0.51 -1.45,-1.24 -1.73,-2.18zm-0.89 -2.37c0.21,-0.03 0.37,-0.25 0.47,-0.65 0.1,-0.4 0.18,-0.88 0.21,-1.43 0.03,-0.55 0.05,-1.11 0.05,-1.69 0,-0.58 -0.02,-1.05 -0.05,-1.4 -0.03,-0.39 -0.16,-0.61 -0.37,-0.68 -0.21,-0.07 -0.44,0.05 -0.68,0.34 -0.35,0.58 -0.57,1.31 -0.65,2.2 -0.09,0.89 -0.05,1.64 0.13,2.25 0.18,0.8 0.47,1.16 0.89,1.06zm16.35 -12.9c-0.03,0.65 -0.08,1.4 -0.13,2.27 -0.05,0.87 -0.1,1.78 -0.13,2.73 -0.03,0.95 -0.06,1.89 -0.08,2.81 -0.02,0.92 -0.03,1.75 -0.03,2.49 0,1.35 0.03,2.61 0.08,3.75 0.05,1.14 0.16,1.98 0.34,2.49l0.26 0.44c0,0.1 0.03,0.17 0.1,0.24l0.1 0.24c0,0.42 -0.23,0.68 -0.68,0.77 -0.45,0.1 -1.08,0.15 -1.88,0.15 -0.59,0 -1.15,-0.1 -1.67,-0.29 -0.52,-0.19 -0.99,-0.53 -1.41,-0.99 -0.42,-0.47 -0.75,-1.11 -0.99,-1.91 -0.24,-0.8 -0.37,-1.84 -0.37,-3.1l0 -0.34c0,-0.07 0,-0.27 0,-0.63 0,-0.36 0.02,-1.07 0.05,-2.15 0.03,-1.08 0.09,-2.64 0.15,-4.67 0.07,-2.03 0.17,-4.77 0.31,-8.22 0,-0.68 -0.03,-1.19 -0.1,-1.55 -0.06,-0.36 -0.1,-0.61 -0.1,-0.77 0,-0.1 0.08,-0.17 0.24,-0.24 0.16,-0.07 0.35,-0.11 0.58,-0.15 0.23,-0.03 0.45,-0.05 0.68,-0.07 0.23,-0.02 0.41,-0.02 0.55,-0.02 1.57,0 2.67,0.44 3.29,1.31 0.63,0.87 0.94,2.1 0.94,3.68l-0.1 1.74zm10.78 15.91l-0.16 -0.24c-0.49,0.8 -1.03,1.41 -1.62,1.83 -0.59,0.42 -1.5,0.63 -2.72,0.63 -0.6,0 -1.13,-0.15 -1.62,-0.43 -0.49,-0.28 -0.9,-0.67 -1.23,-1.15 -0.33,-0.48 -0.6,-1.04 -0.81,-1.67 -0.21,-0.63 -0.31,-1.3 -0.31,-2.01 -0.03,-1.67 0.18,-3.23 0.65,-4.67 0.47,-1.43 1.14,-2.57 2.01,-3.41 0.6,-0.58 1.24,-1 1.94,-1.26 0.7,-0.26 1.38,-0.38 2.04,-0.36 0.66,0.02 1.25,0.14 1.75,0.36 0.5,0.22 0.86,0.51 1.07,0.87 0.07,0.1 0.09,0.17 0.05,0.22 -0.03,0.05 -0.02,0.02 0.05,-0.07 0.31,-0.65 0.71,-1.07 1.18,-1.28 0.47,-0.21 0.94,-0.3 1.41,-0.27 0.47,0.03 0.92,0.15 1.33,0.36 0.42,0.21 0.73,0.43 0.94,0.65 0.24,0.26 0.39,0.59 0.44,0.99 0.05,0.4 0.08,0.75 0.08,1.04 -0.07,1.71 -0.1,3.63 -0.1,5.76 0,2.13 -0.05,4.23 -0.16,6.29l0 0.34c0,1.16 -0.14,2.2 -0.42,3.12 -0.28,0.92 -0.71,1.68 -1.28,2.27 -0.57,0.6 -1.31,0.99 -2.2,1.18 -0.89,0.19 -1.94,0.15 -3.16,-0.15 -0.56,-0.13 -1.01,-0.38 -1.36,-0.75 -0.35,-0.37 -0.6,-0.75 -0.76,-1.14 -0.16,-0.39 -0.21,-0.73 -0.16,-1.02 0.05,-0.29 0.18,-0.42 0.39,-0.39 0.49,0.07 1.01,0.03 1.57,-0.1 0.56,-0.13 0.92,-0.47 1.1,-1.02 0.18,-0.51 0.26,-1.19 0.23,-2.03 -0.02,-0.84 -0.08,-1.68 -0.18,-2.52zm-0.89 -3.04c0.24,0 0.44,-0.3 0.58,-0.89 0.14,-0.6 0.23,-1.25 0.26,-1.96 0.03,-0.71 0.02,-1.36 -0.05,-1.96 -0.07,-0.6 -0.16,-0.89 -0.26,-0.89 -0.39,-0.03 -0.68,0.11 -0.89,0.44 -0.21,0.32 -0.36,0.72 -0.44,1.18 -0.09,0.47 -0.13,0.97 -0.13,1.5 0,0.53 0.03,0.97 0.11,1.33 0.1,0.84 0.38,1.26 0.84,1.26zm18.14 2.41c-0.49,0.94 -1.07,1.69 -1.73,2.25 -0.66,0.56 -1.6,0.77 -2.82,0.6 -1.18,-0.16 -2.13,-0.73 -2.82,-1.69 -0.7,-0.97 -1.08,-2.16 -1.15,-3.58 -0.11,-1.91 0.1,-3.51 0.6,-4.84 0.5,-1.32 1.2,-2.4 2.07,-3.24 0.6,-0.58 1.24,-1 1.93,-1.26 0.7,-0.26 1.38,-0.38 2.04,-0.36 0.66,0.02 1.25,0.14 1.75,0.36 0.5,0.22 0.86,0.51 1.07,0.87 0.07,0.1 0.08,0.17 0.05,0.22 -0.03,0.05 -0.02,0.02 0.05,-0.07 0.31,-0.65 0.73,-1.05 1.25,-1.21 0.52,-0.16 1.05,-0.19 1.57,-0.1 0.52,0.1 1.01,0.27 1.46,0.53 0.45,0.26 0.78,0.5 0.99,0.73 0.24,0.26 0.39,0.51 0.44,0.77 0.05,0.26 0.06,0.53 0.03,0.82 -0.07,0.74 -0.14,1.74 -0.21,2.98 -0.07,1.24 -0.1,2.42 -0.1,3.55 0,0.94 0.06,1.82 0.18,2.66 0.13,0.84 0.32,1.53 0.6,2.08 0.18,0.36 -0.01,0.59 -0.55,0.7 -0.54,0.11 -1.21,0.17 -2.01,0.17 -1.12,0 -2.11,-0.26 -2.98,-0.77 -0.87,-0.51 -1.45,-1.24 -1.73,-2.18zm-0.89 -2.37c0.21,-0.03 0.37,-0.25 0.47,-0.65 0.1,-0.4 0.18,-0.88 0.21,-1.43 0.03,-0.55 0.05,-1.11 0.05,-1.69 0,-0.58 -0.02,-1.05 -0.05,-1.4 -0.03,-0.39 -0.16,-0.61 -0.37,-0.68 -0.21,-0.07 -0.44,0.05 -0.68,0.34 -0.35,0.58 -0.57,1.31 -0.65,2.2 -0.09,0.89 -0.05,1.64 0.13,2.25 0.18,0.8 0.47,1.16 0.89,1.06zm18.5 2.38c-0.49,0.93 -1.04,1.64 -1.65,2.12 -0.61,0.48 -1.58,0.73 -2.9,0.73 -0.6,0 -1.14,-0.15 -1.63,-0.44 -0.48,-0.29 -0.89,-0.68 -1.23,-1.16 -0.33,-0.48 -0.6,-1.04 -0.81,-1.67 -0.21,-0.63 -0.31,-1.3 -0.31,-2.01 -0.03,-1.68 0.18,-3.23 0.65,-4.67 0.47,-1.43 1.14,-2.57 2.02,-3.41 0.48,-0.48 1.03,-0.85 1.62,-1.11 0.6,-0.26 1.17,-0.41 1.73,-0.46 0.56,-0.05 1.09,-0.02 1.6,0.1 0.5,0.11 0.93,0.28 1.28,0.51 0.11,-1.81 0.16,-3.29 0.18,-4.45 0.02,-1.16 0.03,-2.08 0.03,-2.76 0,-0.68 0,-1.15 0,-1.43 0,-0.27 0.03,-0.41 0.1,-0.41 1.99,-0.42 3.52,-0.29 4.6,0.39 1.08,0.68 1.57,1.93 1.46,3.77l-0.1 1.74c-0.06,1.45 -0.11,2.7 -0.14,3.75 -0.03,1.05 -0.06,2.01 -0.08,2.88 -0.02,0.87 -0.03,1.69 -0.03,2.44 0,0.76 0.02,1.57 0.05,2.44 0,0.61 0.03,1.14 0.08,1.6 0.05,0.45 0.1,0.86 0.16,1.23 0.05,0.37 0.11,0.73 0.18,1.09 0.07,0.36 0.14,0.75 0.21,1.21 0.07,0.32 -0.1,0.54 -0.52,0.65 -0.42,0.11 -1.03,0.17 -1.84,0.17 -1.12,0 -2.11,-0.24 -2.99,-0.73 -0.88,-0.48 -1.45,-1.19 -1.73,-2.12zm-1.27 -2.41c0.24,0 0.46,-0.29 0.65,-0.87 0.2,-0.58 0.36,-1.23 0.5,-1.93 0.14,-0.71 0.24,-1.36 0.29,-1.96 0.05,-0.6 0.08,-0.91 0.08,-0.94 -0.35,0.16 -0.66,0.41 -0.92,0.75 -0.26,0.34 -0.49,0.73 -0.68,1.16 -0.2,0.44 -0.33,0.88 -0.42,1.33 -0.09,0.45 -0.13,0.85 -0.13,1.21 0,0.84 0.21,1.26 0.63,1.26zm17.9 -9.83c1.26,0.07 2.32,0.32 3.19,0.77 0.87,0.45 1.58,1.02 2.12,1.69 0.54,0.68 0.94,1.43 1.18,2.26 0.24,0.82 0.4,1.63 0.47,2.44 0.07,1.13 -0.06,2.2 -0.39,3.22 -0.33,1.02 -0.84,1.92 -1.52,2.69 -0.68,0.77 -1.51,1.39 -2.48,1.84 -0.97,0.45 -2.06,0.65 -3.24,0.58 -1.85,-0.1 -3.32,-0.57 -4.39,-1.43 -1.08,-0.86 -1.85,-2.01 -2.3,-3.46 -0.39,-1.26 -0.45,-2.52 -0.21,-3.8 0.24,-1.28 0.71,-2.42 1.41,-3.44 0.7,-1.02 1.57,-1.84 2.64,-2.47 1.06,-0.63 2.24,-0.92 3.53,-0.89zm-0.37 3.81c-0.24,0 -0.45,0.2 -0.63,0.61 -0.18,0.4 -0.31,0.91 -0.39,1.52 -0.09,0.62 -0.14,1.26 -0.16,1.96 -0.02,0.69 0.01,1.34 0.08,1.96 0.07,0.61 0.18,1.12 0.34,1.52 0.16,0.41 0.34,0.61 0.55,0.61 0.35,0 0.66,-0.42 0.94,-1.26 0.28,-0.83 0.44,-1.77 0.5,-2.8 0.05,-1.03 -0.01,-1.97 -0.18,-2.82 -0.18,-0.85 -0.52,-1.28 -1.05,-1.28z"/>
   <path class="fil0" d="M404.38 114.49c-0.03,1.17 -0.37,2.07 -0.99,2.71 -0.63,0.64 -1.33,1.12 -2.12,1.43 -0.78,0.31 -1.54,0.48 -2.25,0.53 -0.71,0.05 -1.18,0.07 -1.39,0.07 -1.47,0 -2.64,-0.16 -3.51,-0.48 -0.87,-0.32 -1.55,-0.68 -2.02,-1.08 -0.47,-0.4 -0.78,-0.8 -0.92,-1.2 -0.14,-0.4 -0.23,-0.68 -0.26,-0.85 -0.14,-0.65 0.07,-1.16 0.63,-1.55 0.56,-0.39 1.2,-0.65 1.91,-0.8 0.72,-0.15 1.37,-0.17 1.94,-0.07 0.57,0.1 0.81,0.31 0.71,0.63 -0.07,0.22 -0.09,0.48 -0.05,0.77 0.04,0.29 0.11,0.56 0.21,0.8 0.1,0.24 0.26,0.45 0.47,0.63 0.21,0.18 0.48,0.27 0.79,0.27 0.06,0 0.23,-0.08 0.5,-0.24 0.26,-0.16 0.32,-0.58 0.18,-1.26 -0.1,-0.45 -0.48,-0.92 -1.12,-1.41 -0.65,-0.48 -1.35,-1 -2.1,-1.55 -0.75,-0.55 -1.43,-1.15 -2.05,-1.8 -0.61,-0.65 -0.91,-1.37 -0.91,-2.18 0,-0.54 0.12,-1.09 0.37,-1.64 0.25,-0.55 0.63,-1.04 1.15,-1.48 0.53,-0.44 1.22,-0.78 2.07,-1.04 0.85,-0.26 1.9,-0.39 3.12,-0.39 0.56,0 1.11,0.07 1.65,0.22 0.54,0.15 1.03,0.34 1.46,0.6 0.44,0.26 0.8,0.57 1.1,0.94 0.29,0.38 0.48,0.79 0.55,1.23 0.11,0.62 0,1.06 -0.31,1.36 -0.31,0.29 -0.66,0.45 -1.04,0.48 -0.39,0.03 -0.73,-0.02 -1.05,-0.17 -0.31,-0.15 -0.44,-0.35 -0.36,-0.61 0.1,-0.35 0.05,-0.61 -0.16,-0.77 -0.21,-0.16 -0.46,-0.25 -0.76,-0.27 -0.29,-0.01 -0.58,0.04 -0.84,0.17 -0.26,0.13 -0.39,0.31 -0.39,0.53 0,0.23 0.05,0.39 0.16,0.49 0.1,0.1 0.4,0.27 0.89,0.53 0.31,0.22 0.74,0.54 1.28,0.97 0.54,0.42 1.07,0.91 1.6,1.47 0.52,0.56 0.97,1.19 1.33,1.86 0.36,0.68 0.55,1.39 0.55,2.13z"/>
  </g>
 </g>
</svg>
